name analog
datacolumns 19
datarows 27
range 0.0 0.013000000000000001
endheader
time	ground_force_vx	ground_force_vy	ground_force_vz	ground_force_px	ground_force_py	ground_force_pz	l_ground_force_vx	l_ground_force_vy	l_ground_force_vz	l_ground_force_px	l_ground_force_py	l_ground_force_pz	ground_torque_x	ground_torque_y	ground_torque_z	l_ground_torque_x	l_ground_torque_y	l_ground_torque_z
0.0	-0.0	-0.0	-0.0	-10.446683883666992	126.41134643554688	-494.451904296875	-8.19027042388916	-103.3363800048828	-423.3990783691406	-0.0	-0.0	-0.0	-0.0	-0.0	-0.0	50730.2890625	8399.4267578125	-1593.915283203125
0.0005	-0.0	-0.0	-0.0	-11.29582405090332	126.7384262084961	-490.5669555664063	-8.42752456665039	-104.0475616455078	-422.8226318359375	-0.0	-0.0	-0.0	-0.0	-0.0	-0.0	50378.21484375	8911.177734375	-1603.8411865234375
0.001	-0.0	-0.0	-0.0	-12.667892456054688	126.59130859375	-488.45849609375	-9.105975151062012	-104.51068878173828	-422.2472229003906	-0.0	-0.0	-0.0	-0.0	-0.0	-0.0	49543.6953125	9318.490234375	-1663.7088623046875
0.0015	-0.0	-0.0	-0.0	-13.712533950805664	126.3552703857422	-484.1072082519531	-8.985759735107422	-105.01718139648438	-421.3237915039063	-0.0	-0.0	-0.0	-0.0	-0.0	-0.0	49262.54296875	9612.2236328125	-1594.769287109375
0.002	-0.0	-0.0	-0.0	-14.480822563171388	126.32646942138672	-481.1327209472656	-9.07425594329834	-106.84075164794922	-420.7277221679688	-0.0	-0.0	-0.0	-0.0	-0.0	-0.0	48924.41796875	9901.5810546875	-1499.5682373046875
0.0025	-0.0	-0.0	-0.0	-15.36018180847168	125.67069244384766	-478.3317565917969	-8.934198379516602	-108.4276123046875	-421.7869262695313	-0.0	-0.0	-0.0	-0.0	-0.0	-0.0	48520.8359375	10102.8486328125	-1349.665771484375
0.003	-0.0	-0.0	-0.0	-16.503944396972656	125.76300048828124	-476.6661987304688	-8.814087867736816	-110.72380828857422	-421.6629943847656	-0.0	-0.0	-0.0	-0.0	-0.0	-0.0	47966.04296875	10151.0078125	-1192.3681640625
0.0035	-0.0	-0.0	-0.0	-17.50659942626953	125.6738739013672	-473.487060546875	-8.66522216796875	-112.8751220703125	-422.4734497070313	-0.0	-0.0	-0.0	-0.0	-0.0	-0.0	47868.72265625	10234.150390625	-857.0563354492188
0.004	-0.0	-0.0	-0.0	-18.40958404541016	124.66124725341795	-470.40618896484375	-8.608475685119629	-115.05489349365234	-423.14398193359375	-0.0	-0.0	-0.0	-0.0	-0.0	-0.0	47593.625	10416.576171875	-677.2802734375
0.0045000000000000005	-0.0	-0.0	-0.0	-18.96549415588379	124.45046997070312	-468.2198181152344	-8.45960807800293	-116.66169738769533	-421.7900085449219	-0.0	-0.0	-0.0	-0.0	-0.0	-0.0	47240.46484375	10538.5986328125	-521.00146484375
0.005	-0.0	-0.0	-0.0	-20.18578338623047	123.89126586914062	-464.431640625	-8.544488906860352	-118.4675064086914	-422.9493408203125	-0.0	-0.0	-0.0	-0.0	-0.0	-0.0	47167.0078125	10809.203125	-219.6368560791016
0.0055	-0.0	-0.0	-0.0	-20.74471092224121	123.48690795898438	-461.5889587402344	-8.479743957519531	-118.99324798583984	-419.7748718261719	-0.0	-0.0	-0.0	-0.0	-0.0	-0.0	46839.72265625	10497.4521484375	-214.23931884765625
0.006	-0.0	-0.0	-0.0	-21.293079376220703	123.14550018310548	-457.09088134765625	-8.42752456665039	-120.2898406982422	-419.0757141113281	-0.0	-0.0	-0.0	-0.0	-0.0	-0.0	46451.96875	10616.541015625	-45.95449447631836
0.006500000000000001	-0.0	-0.0	-0.0	-21.76272773742676	122.59172821044922	-455.5837707519531	-8.049027442932129	-120.70336151123048	-417.3816833496094	-0.0	-0.0	-0.0	-0.0	-0.0	-0.0	46032.48046875	10422.798828125	33.822200775146484
0.007	-0.0	-0.0	-0.0	-22.11932945251465	122.0146484375	-451.4945983886719	-7.946605682373047	-121.28890991210938	-415.3617858886719	-0.0	-0.0	-0.0	-0.0	-0.0	-0.0	45952.2890625	10648.404296875	269.5481262207031
0.0075	-0.0	-0.0	-0.0	-22.180307388305664	120.98303985595705	-449.0027770996094	-7.180716037750244	-121.10235595703124	-410.8988037109375	-0.0	-0.0	-0.0	-0.0	-0.0	-0.0	45188.1953125	10487.4951171875	566.7604370117188
0.008	-0.0	-0.0	-0.0	-22.55780601501465	120.002685546875	-444.5426635742188	-6.830730438232422	-121.14460754394533	-408.6368713378906	-0.0	-0.0	-0.0	-0.0	-0.0	-0.0	44404.0703125	9924.5244140625	716.9710083007812
0.0085	-0.0	-0.0	-0.0	-22.514402389526367	118.80540466308594	-438.3853759765625	-6.09843635559082	-121.3262939453125	-404.0779724121094	-0.0	-0.0	-0.0	-0.0	-0.0	-0.0	44027.94921875	10003.7294921875	875.1251831054688
0.009000000000000001	-0.0	-0.0	-0.0	-22.034996032714844	117.5240478515625	-434.4552612304688	-5.793989181518555	-121.22736358642578	-400.2160949707031	-0.0	-0.0	-0.0	-0.0	-0.0	-0.0	43582.1796875	9765.166015625	1010.833251953125
0.0095	-0.0	-0.0	-0.0	-21.4105224609375	115.96442413330078	-427.150390625	-5.206222057342529	-120.52042388916016	-396.8544006347656	-0.0	-0.0	-0.0	-0.0	-0.0	-0.0	43255.9453125	9625.8515625	1191.17822265625
0.01	-0.0	-0.0	-0.0	-21.232101440429688	114.84558868408205	-422.8425598144531	-5.200520992279053	-120.76327514648438	-393.5799865722656	-0.0	-0.0	-0.0	-0.0	-0.0	-0.0	42891.51953125	9418.384765625	1239.2525634765625
0.0105	-0.0	-0.0	-0.0	-20.702938079833984	113.11257934570312	-419.6260681152344	-5.567065715789795	-120.46492004394533	-392.6014709472656	-0.0	-0.0	-0.0	-0.0	-0.0	-0.0	42796.50390625	9157.61328125	1270.660400390625
0.011	-0.0	-0.0	-0.0	-20.41426467895508	111.68673706054688	-414.717529296875	-5.622437477111816	-120.26062774658205	-390.00238037109375	-0.0	-0.0	-0.0	-0.0	-0.0	-0.0	42403.53515625	8975.3544921875	1315.6925048828125
0.0115	-0.0	-0.0	-0.0	-19.63935852050781	109.92532348632812	-411.89111328125	-5.909843921661377	-120.3214874267578	-389.3624877929688	-0.0	-0.0	-0.0	-0.0	-0.0	-0.0	42356.26171875	9017.353515625	1224.531005859375
0.012	-0.0	-0.0	-0.0	-18.933500289916992	109.22552490234376	-409.4181823730469	-6.087182521820068	-120.26042175292967	-391.8560485839844	-0.0	-0.0	-0.0	-0.0	-0.0	-0.0	42933.1328125	8815.5986328125	1023.859619140625
0.0125	-0.0	-0.0	-0.0	-18.89207649230957	108.06723022460938	-407.9501037597656	-6.68733024597168	-120.09690856933594	-392.5278015136719	-0.0	-0.0	-0.0	-0.0	-0.0	-0.0	43077.06640625	8630.271484375	795.3324584960938
0.013000000000000001	-0.0	-0.0	-0.0	-18.912628173828125	107.6968994140625	-406.7270812988281	-7.383498191833496	-119.58757019042967	-395.212890625	-0.0	-0.0	-0.0	-0.0	-0.0	-0.0	43624.6796875	8507.462890625	477.7922973632813
